<?xml version="1.0" encoding="UTF-8"?>
<svg width="1200pt" height="1200pt" version="1.1" viewBox="0 0 1200 1200" xmlns="http://www.w3.org/2000/svg">
 <g fill="#f26a20">
  <path d="m855.6 578.4v-10.801c0-9.6016-3.6016-18-10.801-22.801l-81.602-64.797v-78c0-3.6016-3.6016-7.1992-7.1992-7.1992h-38.398c-3.6016 0-7.1992 3.6016-7.1992 7.1992v36l-94.801-74.398c-9.6016-7.1992-21.602-7.1992-31.199 0l-229.2 180c-7.1992 6-10.801 14.398-10.801 22.801v10.801c0 9.6016 8.3984 18 18 18h43.199v194.4c0 9.6016 8.3984 18 18 18h123.6v-134.4c0-9.6016 8.3984-18 18-18h70.801c9.6016 0 18 8.3984 18 18v134.4h123.6c9.6016 0 18-8.3984 18-18v-193.2h43.199c8.3984 0 16.801-8.3984 16.801-18z"/>
  <path d="m985.2 231.6c30 0 55.199-25.199 55.199-55.199s-25.199-55.199-55.199-55.199-55.199 25.199-55.199 55.199c0 29.996 24 55.199 55.199 55.199z"/>
  <path d="m985.2 400.8c102 0 184.8-82.801 184.8-184.8s-82.801-186-184.8-186-184.8 84-184.8 186 82.801 184.8 184.8 184.8zm0-327.6c78 0 141.6 63.602 141.6 141.6 0 43.199-19.199 82.801-50.398 108v-16.801c0-27.602-18-51.602-43.199-60-14.398 9.6016-31.199 15.602-49.199 15.602s-34.801-6-49.199-15.602c-25.199 8.3984-43.199 32.398-43.199 60l-0.003907 18c-31.199-26.398-50.398-64.801-50.398-108 2.3984-79.199 65.996-142.8 144-142.8z"/>
  <path d="m214.8 231.6c30 0 55.199-25.199 55.199-55.199s-25.199-55.199-55.199-55.199-55.199 25.199-55.199 55.199c0 29.996 25.199 55.199 55.199 55.199z"/>
  <path d="m214.8 400.8c102 0 184.8-82.801 184.8-184.8s-82.801-186-184.8-186-184.8 84-184.8 186 82.801 184.8 184.8 184.8zm0-327.6c78 0 141.6 63.602 141.6 141.6 0 43.199-19.199 82.801-50.398 108v-16.801c0-27.602-18-51.602-43.199-60-14.398 9.6016-31.199 15.602-49.199 15.602s-34.801-6-49.199-15.602c-25.199 8.3984-43.199 32.398-43.199 60l-0.007812 18c-31.199-26.398-50.398-64.801-50.398-108 2.3984-79.199 66-142.8 144-142.8z"/>
  <path d="m985.2 889.2c-30 0-55.199 25.199-55.199 55.199s25.199 55.199 55.199 55.199 55.199-25.199 55.199-55.199-25.199-55.199-55.199-55.199z"/>
  <path d="m985.2 799.2c-102 0-184.8 82.801-184.8 184.8s82.801 184.8 184.8 184.8 184.8-82.801 184.8-184.8-82.801-184.8-184.8-184.8zm91.199 294v-16.801c0-27.602-18-51.602-43.199-60-13.199 9.6016-30 15.602-48 15.602s-34.801-6-49.199-15.602c-25.199 8.3984-43.199 32.398-43.199 60v16.801c-31.199-26.398-50.398-64.801-50.398-108 0-78 63.602-141.6 141.6-141.6s141.6 63.602 141.6 141.6c1.1953 43.199-18.004 81.602-49.207 108z"/>
  <path d="m214.8 889.2c-30 0-55.199 25.199-55.199 55.199s25.199 55.199 55.199 55.199 55.199-25.199 55.199-55.199-24-55.199-55.199-55.199z"/>
  <path d="m214.8 799.2c-102 0-184.8 82.801-184.8 184.8s82.801 184.8 184.8 184.8 184.8-82.801 184.8-184.8-82.801-184.8-184.8-184.8zm91.199 294v-16.801c0-27.602-18-51.602-43.199-60-14.398 9.6016-31.199 15.602-49.199 15.602s-34.801-6-49.199-15.602c-25.199 8.3984-43.199 32.398-43.199 60v16.801c-31.199-26.398-50.398-64.801-50.398-108 0-78 63.602-141.6 141.6-141.6 77.992 0.003906 143.99 62.402 143.99 140.4 0 44.398-19.199 82.801-50.398 109.2z"/>
  <path d="m486 246c16.801 0 30-13.199 30-30s-13.199-30-30-30-30 13.199-30 30c0 15.602 13.199 30 30 30z"/>
  <path d="m744 216c0 16.57-13.43 30-30 30s-30-13.43-30-30 13.43-30 30-30 30 13.43 30 30"/>
  <path d="m630 216c0 16.57-13.43 30-30 30s-30-13.43-30-30 13.43-30 30-30 30 13.43 30 30"/>
  <path d="m486 954c-16.801 0-30 13.199-30 30s13.199 30 30 30 30-13.199 30-30c0-15.602-14.398-30-30-30z"/>
  <path d="m744 984c0 16.57-13.43 30-30 30s-30-13.43-30-30 13.43-30 30-30 30 13.43 30 30"/>
  <path d="m630 984c0 16.57-13.43 30-30 30s-30-13.43-30-30 13.43-30 30-30 30 13.43 30 30"/>
  <path d="m1014 486c0 16.57-13.43 30-30 30s-30-13.43-30-30 13.43-30 30-30 30 13.43 30 30"/>
  <path d="m1014 714c0 16.57-13.43 30-30 30s-30-13.43-30-30 13.43-30 30-30 30 13.43 30 30"/>
  <path d="m1014 600c0 16.57-13.43 30-30 30s-30-13.43-30-30 13.43-30 30-30 30 13.43 30 30"/>
  <path d="m216 456c-16.801 0-30 13.199-30 30s13.199 30 30 30 30-13.199 30-30-14.398-30-30-30z"/>
  <path d="m216 684c-16.801 0-30 13.199-30 30s13.199 30 30 30 30-13.199 30-30c0-15.602-14.398-30-30-30z"/>
  <path d="m216 570c-16.801 0-30 13.199-30 30s13.199 30 30 30 30-13.199 30-30-14.398-30-30-30z"/>
 </g>
</svg>
