<svg xmlns="http://www.w3.org/2000/svg" width="151" height="179" viewBox="0 0 151 179" fill="none">
  <path d="M75.2861 178.881C116.865 178.881 150.572 176.884 150.572 174.421C150.572 171.958 116.865 169.961 75.2861 169.961C33.7067 169.961 0 171.958 0 174.421C0 176.884 33.7067 178.881 75.2861 178.881Z" fill="#BC161E"/>
  <path d="M61.4123 13.2682C61.4123 20.591 74.6745 44.5751 74.6745 44.5751C74.6745 44.5751 87.9368 20.5821 87.9368 13.2682C87.9368 9.74924 86.5388 6.37445 84.0505 3.88618C81.5623 1.39791 78.1875 0 74.6686 0C71.1496 0 67.7748 1.39791 65.2865 3.88618C62.7983 6.37445 61.4004 9.74924 61.4004 13.2682H61.4123ZM70.5927 13.468C70.5915 12.6604 70.8299 11.8706 71.2777 11.1986C71.7255 10.5266 72.3626 10.0024 73.1083 9.69258C73.8541 9.38272 74.675 9.30107 75.4672 9.45789C76.2594 9.61471 76.9872 10.003 77.5587 10.5736C78.1301 11.1442 78.5195 11.8715 78.6775 12.6635C78.8354 13.4555 78.755 14.2764 78.4462 15.0226C78.1374 15.7689 77.6142 16.4067 76.9429 16.8555C76.2715 17.3043 75.4821 17.5438 74.6745 17.5438C73.593 17.5438 72.5556 17.1146 71.7903 16.3504C71.025 15.5862 70.5942 14.5495 70.5927 13.468Z" fill="#FFC200"/>
  <path d="M76.7506 159.515H119.39L119.39 75.3463H76.7506V159.515Z" fill="#FFE0D2"/>
  <path d="M53.8408 54H96.4988L119.612 75.569H76.9543L53.8408 54Z" fill="#D9855E"/>
  <path d="M30.7002 75.569L53.8137 54L76.9539 75.569V99.0552V159.515H30.7002V75.569Z" fill="#FF9767"/>
  <path d="M53.9811 77.0918H58.1968V72.8762H53.9811V77.0918Z" fill="white"/>
  <path d="M47.7556 77.0918H51.9712V72.8762H47.7556V77.0918Z" fill="white"/>
  <path d="M53.9811 83.0894H58.1968V78.8738H53.9811V83.0894Z" fill="white"/>
  <path d="M47.7556 83.0894H51.9712V78.8738H47.7556V83.0894Z" fill="white"/>
  <path d="M53.9811 98.8079H58.1968V94.9496H53.9811V98.8079Z" fill="white"/>
  <path d="M47.7556 98.8079H51.9712V94.9496H47.7556V98.8079Z" fill="white"/>
  <path d="M53.9811 104.294H58.1968V100.436H53.9811V104.294Z" fill="white"/>
  <path d="M47.7556 104.294H51.9712V100.436H47.7556V104.294Z" fill="white"/>
  <path d="M53.9811 120.138H58.1968V116.28H53.9811V120.138Z" fill="white"/>
  <path d="M47.7556 120.138H51.9712V116.28H47.7556V120.138Z" fill="white"/>
  <path d="M53.9811 125.624H58.1968V121.766H53.9811V125.624Z" fill="white"/>
  <path d="M47.7556 125.624H51.9712V121.766H47.7556V125.624Z" fill="white"/>
  <path d="M47.7559 159.515H57.9893V150.987C57.9893 148.161 55.6984 145.87 52.8726 145.87C50.0467 145.87 47.7559 148.161 47.7559 150.987V159.515Z" fill="white"/>
</svg>