<svg xmlns="http://www.w3.org/2000/svg" width="156" height="185" viewBox="0 0 156 185" fill="none">
  <path d="M77.928 184.809C120.509 184.809 155.027 182.764 155.027 180.241C155.027 177.719 120.509 175.674 77.928 175.674C35.3475 175.674 0.829102 177.719 0.829102 180.241C0.829102 182.764 35.3475 184.809 77.928 184.809Z" fill="#BC161E"/>
  <path d="M110.697 180.987H95.3699C95.0525 180.985 94.7463 180.87 94.5064 180.662L92.0772 178.593C92.0111 178.535 91.9315 178.496 91.8459 178.479C91.7603 178.462 91.6717 178.466 91.5886 178.493C91.5054 178.52 91.4306 178.568 91.3712 178.632C91.3118 178.696 91.2699 178.774 91.2495 178.859L90.8564 180.495C90.8223 180.636 90.7418 180.762 90.6277 180.851C90.5136 180.941 90.3726 180.99 90.2273 180.99H84.0488C83.9535 180.99 83.8594 180.969 83.7731 180.929C83.6869 180.888 83.6107 180.829 83.5499 180.756C83.4892 180.682 83.4454 180.596 83.4217 180.504C83.398 180.412 83.395 180.315 83.4129 180.222L85.2972 170.361H100.9L110.697 180.987Z" fill="black"/>
  <path d="M23.0312 171.106L13.7061 158.756C13.5724 158.579 13.5064 158.36 13.5198 158.138L13.7281 154.757C13.7334 154.675 13.7174 154.593 13.6818 154.519C13.6461 154.444 13.5919 154.38 13.5244 154.333C13.4569 154.286 13.3784 154.257 13.2965 154.249C13.2145 154.241 13.1318 154.254 13.0564 154.287L11.5679 154.935C11.4075 155.005 11.2282 155.019 11.059 154.974C10.8898 154.93 10.7406 154.829 10.6354 154.69L7.04884 149.939C6.98101 149.849 6.93332 149.746 6.90905 149.637C6.88477 149.527 6.88448 149.414 6.9082 149.304C6.93192 149.194 6.97908 149.091 7.04645 149.001C7.11383 148.912 7.19981 148.838 7.29852 148.784L16.3077 143.905L26.037 156.85L23.0312 171.106Z" fill="black"/>
  <path d="M124.98 43.6603L123.611 57.4548C123.275 60.5242 121.776 63.3481 119.421 65.3457C117.067 67.3433 114.036 68.3628 110.953 68.1944C107.87 68.026 104.969 66.6826 102.846 64.4405C100.723 62.1983 99.5396 59.2279 99.5398 56.1402V48.8898C99.5398 50.4037 98.9384 51.8556 97.8679 52.9261C96.7974 53.9966 95.3455 54.598 93.8316 54.598H72.6971C71.4201 54.598 70.1954 54.0908 69.2924 53.188C68.3893 52.2852 67.8818 51.0606 67.8814 49.7837V41.0352C67.8813 40.8832 67.8332 40.7352 67.7438 40.6122C67.6545 40.4893 67.5285 40.3978 67.384 40.3508C67.2395 40.3038 67.0838 40.3037 66.9392 40.3506C66.7947 40.3974 66.6686 40.4888 66.5792 40.6117L34.7139 84.3955C35.3125 77.4665 24.1086 72.7267 23.103 74.1627L56.305 26.6958C57.8407 24.501 59.8832 22.7092 62.2593 21.4724C64.6353 20.2357 67.2747 19.5905 69.9533 19.5916H73.9082C74.715 19.592 75.5043 19.3565 76.1791 18.9141C76.8538 18.4717 77.3845 17.8418 77.7059 17.1017L78.2576 15.8174H87.3344L87.9 17.1486C88.2182 17.8955 88.7492 18.5323 89.4266 18.9797C90.1041 19.4271 90.8982 19.6653 91.71 19.6647H94.7766C99.1917 19.6647 103.426 21.4186 106.548 24.5406C109.67 27.6625 111.424 31.8968 111.424 36.312V41.5235L122.775 41.2766C123.082 41.27 123.387 41.3286 123.669 41.4485C123.952 41.5685 124.206 41.747 124.414 41.9723C124.622 42.1976 124.781 42.4646 124.878 42.7556C124.976 43.0465 125.01 43.3549 124.98 43.6603Z" fill="#1E95A6"/>
  <path d="M99.5391 48.8925V37.6624" stroke="black" stroke-width="0.689726" stroke-linecap="round" stroke-linejoin="round"/>
  <path d="M109.593 44.5472L107.895 52.4667" stroke="black" stroke-width="0.689726" stroke-linecap="round" stroke-linejoin="round"/>
  <path d="M95.6635 54.8682H71.5493V58.3624H95.6635V54.8682Z" fill="white" stroke="black" stroke-width="0.689726" stroke-linejoin="round"/>
  <path d="M93.2279 54.8682H74.0356V58.3624H93.2279V54.8682Z" stroke="black" stroke-width="0.689726" stroke-linejoin="round"/>
  <path d="M90.6949 54.8682H76.521V58.3624H90.6949V54.8682Z" stroke="black" stroke-width="0.689726" stroke-linejoin="round"/>
  <path d="M88.2151 54.8682H79.0293V58.3624H88.2151V54.8682Z" stroke="black" stroke-width="0.689726" stroke-linejoin="round"/>
  <path d="M85.3439 54.8682H81.8994V58.3624H85.3439V54.8682Z" stroke="black" stroke-width="0.689726" stroke-linejoin="round"/>
  <path d="M73.1675 58.3638H93.2358C94.6835 58.3633 96.0771 58.9143 97.1331 59.9047C98.1891 60.8951 98.8282 62.2506 98.9205 63.6954L105.11 160.257C105.171 161.203 105.036 162.152 104.716 163.044C104.396 163.937 103.895 164.754 103.247 165.445C102.598 166.137 101.814 166.688 100.944 167.065C100.074 167.441 99.1362 167.636 98.188 167.636H86.7606C85.0113 167.636 83.3266 166.975 82.044 165.785C80.7613 164.596 79.9756 162.966 79.844 161.221L75.8643 108.419C75.8643 108.419 66.313 141.674 33.3124 156.148C32.2657 156.606 31.0945 156.697 29.9898 156.404C28.8851 156.112 27.912 155.454 27.229 154.538L18.755 143.179C18.0841 142.281 17.7886 141.157 17.931 140.045C18.0733 138.933 18.6423 137.919 19.5179 137.219C26.9297 131.287 44.7411 115.804 51.3722 99.0563C57.468 83.663 63.5238 69.5705 66.5047 62.7188C67.0709 61.4231 68.0029 60.3209 69.1864 59.5473C70.3699 58.7737 71.7536 58.3624 73.1675 58.3638Z" fill="white" stroke="black" stroke-width="0.689726" stroke-linejoin="round"/>
  <path d="M100.563 167.635H85.6362V170.523H100.563V167.635Z" fill="white" stroke="black" stroke-width="0.689726" stroke-linejoin="round"/>
  <path d="M98.2681 167.635V170.523" stroke="black" stroke-width="0.689726" stroke-linejoin="round"/>
  <path d="M95.7241 167.635V170.523" stroke="black" stroke-width="0.689726" stroke-linejoin="round"/>
  <path d="M93.1821 167.635V170.523" stroke="black" stroke-width="0.689726" stroke-linejoin="round"/>
  <path d="M90.6392 167.635V170.523" stroke="black" stroke-width="0.689726" stroke-linejoin="round"/>
  <path d="M88.0981 167.635V170.523" stroke="black" stroke-width="0.689726" stroke-linejoin="round"/>
  <path d="M27.7662 155.229L18.3652 142.776L16.0852 144.498L25.4861 156.951L27.7662 155.229Z" fill="white" stroke="black" stroke-width="0.689726" stroke-linejoin="round"/>
  <path d="M17.5796 146.48L19.8584 144.759" stroke="black" stroke-width="0.689726" stroke-linejoin="round"/>
  <path d="M19.2202 148.613L21.5004 146.891" stroke="black" stroke-width="0.689726" stroke-linejoin="round"/>
  <path d="M20.8604 150.746L23.1406 149.024" stroke="black" stroke-width="0.689726" stroke-linejoin="round"/>
  <path d="M22.5015 152.878L24.7803 151.157" stroke="black" stroke-width="0.689726" stroke-linejoin="round"/>
  <path d="M23.978 155.009L26.2569 153.289" stroke="black" stroke-width="0.689726" stroke-linejoin="round"/>
  <path d="M75.8647 108.419C79.3492 101.669 85.445 82.0711 88.4923 82.0711" stroke="black" stroke-width="0.689726" stroke-linecap="round" stroke-linejoin="round"/>
  <path d="M95.6637 19.688L68.5713 78.6995" stroke="black" stroke-width="0.689726" stroke-linecap="round" stroke-linejoin="round"/>
  <path d="M65.0326 86.9128H56.7407L59.53 80.0556H67.5405C67.7207 80.0564 67.8981 80.1014 68.057 80.1866C68.2158 80.2718 68.3514 80.3946 68.4519 80.5443C68.5523 80.694 68.6146 80.8661 68.6331 81.0454C68.6517 81.2247 68.6261 81.4059 68.5585 81.573L66.8935 85.6658C66.7421 86.0349 66.4843 86.3505 66.1529 86.5726C65.8215 86.7947 65.4315 86.9131 65.0326 86.9128Z" fill="#F5BBBB"/>
  <path d="M64.4348 85.5583H56.8906L59.6799 78.6996H68.5732L66.2943 84.3057C66.1439 84.6756 65.8867 84.9923 65.5555 85.2154C65.2243 85.4385 64.8342 85.5578 64.4348 85.5583Z" stroke="black" stroke-width="0.689726" stroke-linecap="round" stroke-linejoin="round"/>
  <path d="M58.6084 81.3055H67.5003" stroke="black" stroke-width="0.689726" stroke-linecap="round" stroke-linejoin="round"/>
  <path d="M34.7187 84.3969C34.7187 84.3969 30.2258 88.5518 23.1065 87.411C15.9871 86.2702 13.4917 78.5949 14.3083 76.2002C15.1249 73.8054 17.8949 75.1104 17.8949 77.2885C17.8949 77.2885 22.1008 75.6029 23.1051 74.1668C24.1093 72.7308 35.3174 77.4665 34.7187 84.3969Z" fill="#ECAA7C"/>
  <path d="M14.7017 79.2446C14.7017 79.2446 15.3417 82.22 21.003 80.1012" stroke="black" stroke-width="0.689726" stroke-linecap="round" stroke-linejoin="round"/>
  <path d="M16.5068 82.8588C16.5068 82.8588 17.7704 85.5639 22.9709 83.5485" stroke="black" stroke-width="0.689726" stroke-linecap="round" stroke-linejoin="round"/>
  <path d="M20.9209 86.4798C21.7969 86.6453 23.6964 86.9323 25.7586 86.0067" stroke="black" stroke-width="0.689726" stroke-linecap="round" stroke-linejoin="round"/>
  <path d="M110.361 43.858L117.589 43.8517C118.152 43.8512 118.608 43.3944 118.608 42.8314L118.596 29.0755C118.596 28.5125 118.139 28.0565 117.576 28.057L110.347 28.0633C109.784 28.0638 109.328 28.5206 109.329 29.0836L109.341 42.8394C109.341 43.4025 109.798 43.8585 110.361 43.858Z" fill="black"/>
  <path d="M123.719 41.3495C121.271 46.6024 116.857 47.5957 113.373 46.8839L110.485 46.2935C109.638 46.0473 108.898 45.5244 108.383 44.8083C107.867 44.0922 107.607 43.2242 107.642 42.3427L108 33.5915C108.014 33.2401 108.158 32.9066 108.405 32.6562C108.652 32.4059 108.984 32.2569 109.335 32.2382V33.1073C109.336 33.6681 109.556 34.2065 109.949 34.6069C110.341 35.0073 110.875 35.238 111.436 35.2496L116.413 35.3516H116.457C117.641 35.3516 118.602 34.0743 118.602 32.8852L121.524 32.9942C122.387 33.0259 123.465 33.7142 123.568 34.7061L123.719 41.3495Z" fill="#ECAA7C"/>
  <path d="M108.479 35.324C108.405 37.138 110.499 37.8471 112.545 38.0829" stroke="black" stroke-width="0.689726" stroke-miterlimit="10" stroke-linecap="round"/>
  <path d="M108.399 38.127C108.325 39.941 110.419 40.6514 112.465 40.8859" stroke="black" stroke-width="0.689726" stroke-miterlimit="10" stroke-linecap="round"/>
  <path d="M108.179 41.0349C108.106 42.8489 110.198 43.4614 112.245 43.6959" stroke="black" stroke-width="0.689726" stroke-miterlimit="10" stroke-linecap="round"/>
  <path d="M111.092 30.3995C111.389 30.3995 111.63 30.1586 111.63 29.8615C111.63 29.5644 111.389 29.3235 111.092 29.3235C110.795 29.3235 110.554 29.5644 110.554 29.8615C110.554 30.1586 110.795 30.3995 111.092 30.3995Z" fill="#98C8DB"/>
  <path d="M111.252 30.3995C111.549 30.3995 111.79 30.1586 111.79 29.8615C111.79 29.5644 111.549 29.3235 111.252 29.3235C110.955 29.3235 110.714 29.5644 110.714 29.8615C110.714 30.1586 110.955 30.3995 111.252 30.3995Z" fill="#98C8DB"/>
  <path d="M70.4629 15.8173H93.4501C93.4501 15.8173 95.2986 14.2737 94.3771 12.1563C93.4557 10.0388 89.0235 9.01802 88.9724 5.38316C88.9214 1.74831 85.5238 -1.07956 81.4379 0.401967C77.6016 1.79107 79.0597 6.34464 77.0029 7.75582C74.9462 9.167 68.7938 9.67878 70.4629 15.8173Z" fill="black"/>
  <path d="M87.3003 15.8189H78.229L79.6443 11.1011H86.3167L87.3003 15.8189Z" fill="#ECAA7C"/>
  <path d="M87.3044 15.8175H86.2808C85.3109 15.8173 84.3545 15.5903 83.4879 15.1547C82.6213 14.719 81.8686 14.0867 81.29 13.3083L79.6484 11.1011H86.3208L87.3044 15.8175Z" fill="black"/>
  <path d="M88.2833 8.26353C87.9302 10.6445 87.068 13.9193 85.0058 13.9193C82.8248 13.9193 80.8315 12.2639 80.0245 11.4873H78.1264C77.607 11.4736 77.1135 11.2577 76.751 10.8855C76.3884 10.5133 76.1855 10.0143 76.1855 9.49469C76.1855 8.97511 76.3884 8.47607 76.751 8.10387C77.1135 7.73167 77.607 7.51574 78.1264 7.50207H79.6438C79.6438 7.50207 85.3575 7.45104 87.0735 4.21484C87.5605 4.7592 87.9214 5.40428 88.1305 6.1041C88.3397 6.80391 88.3918 7.54124 88.2833 8.26353Z" fill="#ECAA7C"/>
  <path d="M78.9893 9.76043C78.9893 9.61449 78.9605 9.46997 78.9046 9.33515C78.8487 9.20033 78.7668 9.07786 78.6636 8.97472C78.5603 8.87159 78.4377 8.78982 78.3028 8.7341C78.1679 8.67838 78.0234 8.64978 77.8774 8.64996" stroke="black" stroke-width="0.413835" stroke-miterlimit="10" stroke-linecap="round"/>
  <path d="M87.8828 6.98917C87.8828 6.98917 86.6923 6.55602 85.9957 7.45267C85.5363 8.04307 85.3308 10.0405 85.6274 10.4613" stroke="black" stroke-width="0.413835" stroke-miterlimit="10" stroke-linecap="round"/>
  <path d="M83.4476 8.97011C83.6449 8.97011 83.8049 8.75149 83.8049 8.48179C83.8049 8.2121 83.6449 7.99347 83.4476 7.99347C83.2503 7.99347 83.0903 8.2121 83.0903 8.48179C83.0903 8.75149 83.2503 8.97011 83.4476 8.97011Z" fill="black"/>
  <path d="M86.9427 8.97011C87.14 8.97011 87.3 8.75149 87.3 8.48179C87.3 8.2121 87.14 7.99347 86.9427 7.99347C86.7454 7.99347 86.5854 8.2121 86.5854 8.48179C86.5854 8.75149 86.7454 8.97011 86.9427 8.97011Z" fill="black"/>
  <path d="M85.6573 11.6228C85.6573 11.6228 84.5137 11.8642 84.002 11.0089" stroke="black" stroke-width="0.413835" stroke-miterlimit="10" stroke-linecap="round"/>
</svg>